<?xml version="1.0" encoding="utf-8"?>
<!-- Generator: Adobe Illustrator 16.0.0, SVG Export Plug-In . SVG Version: 6.00 Build 0)  -->
<!DOCTYPE svg PUBLIC "-//W3C//DTD SVG 1.1 Tiny//EN" "http://www.w3.org/Graphics/SVG/1.1/DTD/svg11-tiny.dtd">
<svg version="1.1" baseProfile="tiny" id="Layer_1" xmlns="http://www.w3.org/2000/svg" xmlns:xlink="http://www.w3.org/1999/xlink"
	 x="0px" y="0px" width="24px" height="24px" viewBox="0 0 24 24" xml:space="preserve">
<path d="M22.162,5.65H11.294V4.893c0-0.686-0.557-1.244-1.242-1.244H1.839c-0.685,0-1.243,0.559-1.243,1.244v14.217
	c0,0.685,0.558,1.242,1.243,1.242h20.323c0.685,0,1.242-0.558,1.242-1.242V6.893C23.404,6.208,22.847,5.65,22.162,5.65z
	 M1.839,4.449h8.214c0.244,0,0.442,0.198,0.442,0.443v1.158c0,0.221,0.179,0.4,0.4,0.4h11.268c0.244,0,0.442,0.198,0.442,0.441v1.75
	H1.396v-3.75C1.396,4.647,1.595,4.449,1.839,4.449z M22.162,19.551H1.839c-0.244,0-0.443-0.198-0.443-0.441V9.443h21.208v9.666
	C22.604,19.353,22.406,19.551,22.162,19.551z"/>
</svg>
